<svg width="466" height="154" viewBox="0 0 466 154" fill="none" xmlns="http://www.w3.org/2000/svg">
<rect width="466" height="154" rx="20" fill="black"/>
<path d="M81.9801 77.2876C79.9424 76.4426 77.9737 74.3241 79.1351 72.0894C79.7355 70.9338 80.8776 70.273 81.9902 70.3212H82.0146C86.5474 70.3212 89.4959 76.9182 89.4959 76.9182C87.1328 77.8662 84.4013 78.2938 81.9801 77.2926M104.153 80.4554C104.153 80.4554 105.413 79.5713 106.024 79.0899C111.821 74.5092 114.883 68.592 114.883 61.9759C114.883 54.8733 112.702 49.1894 108.405 45.0844C102.1 39.0742 93.7479 38.9779 92.3309 39.002H53V109.535H65.216V50.2096H92.5714C92.9557 50.2096 97.5777 50.2868 100.565 53.1923C101.574 54.1735 102.327 55.427 102.814 56.9569C103.287 58.3997 103.523 60.0666 103.523 61.9709C103.523 62.5105 103.479 63.0293 103.386 63.5249C103.06 66.168 101.8 69.1407 98.2959 71.6867C98.4094 71.6037 94.5157 67.5037 94.1221 67.1393C92.5226 65.6625 90.7658 64.3218 88.8072 63.3406C82.3838 60.1197 73.9673 61.3292 70.7774 68.2957C68.839 72.5368 68.8045 77.4919 72.0624 81.1062C76.0487 85.5225 82.2854 86.4257 87.9653 86.1783C88.5061 86.1534 93.8564 85.3615 93.7286 85.1672L109.463 109.637H122.905L104.143 80.4496L104.153 80.4554Z" fill="white"/>
<path d="M186.102 82.0212C186.102 84.1576 185.958 86.0803 185.669 87.7894H141.843C142.203 92.0621 143.718 95.409 146.388 97.8302C149.057 100.251 152.339 101.462 156.235 101.462C161.862 101.462 165.866 99.0765 168.247 94.3053H184.587C182.856 100.002 179.537 104.702 174.631 108.405C169.726 112.037 163.702 113.853 156.56 113.853C150.788 113.853 145.594 112.607 140.977 110.114C136.432 107.551 132.861 103.954 130.264 99.3257C127.739 94.6969 126.476 89.356 126.476 83.303C126.476 77.1788 127.739 71.8023 130.264 67.1736C132.789 62.5448 136.324 58.9842 140.869 56.4918C145.414 53.9994 150.644 52.7532 156.56 52.7532C162.259 52.7532 167.345 53.9638 171.818 56.385C176.363 58.8062 179.862 62.26 182.315 66.7463C184.84 71.1614 186.102 76.2531 186.102 82.0212ZM170.411 77.7485C170.339 73.9031 168.932 70.841 166.191 68.5622C163.449 66.2122 160.095 65.0372 156.127 65.0372C152.376 65.0372 149.201 66.1766 146.604 68.4554C144.079 70.6629 142.528 73.7607 141.951 77.7485H170.411Z" fill="white"/>
<path d="M237.662 101.932H192.042V114H237.662V101.932Z" fill="white"/>
<path d="M242.939 83.0894C242.939 77.1076 244.129 71.8023 246.51 67.1736C248.962 62.5448 252.245 58.9842 256.357 56.4918C260.541 53.9994 265.194 52.7532 270.317 52.7532C274.789 52.7532 278.685 53.6433 282.004 55.4236C285.394 57.2039 288.1 59.4471 290.12 62.1531V53.7145H305.378V112.892H290.12V104.239C288.172 107.017 285.466 109.331 282.004 111.182C278.613 112.963 274.681 113.853 270.208 113.853C265.158 113.853 260.541 112.571 256.357 110.007C252.245 107.444 248.962 103.848 246.51 99.2189C244.129 94.5189 242.939 89.1424 242.939 83.0894ZM290.12 83.303C290.12 79.6712 289.398 76.5735 287.955 74.0099C286.512 71.3751 284.565 69.3811 282.112 68.0281C279.659 66.6039 277.026 65.8918 274.212 65.8918C271.399 65.8918 268.802 66.5683 266.421 67.9213C264.04 69.2743 262.092 71.2682 260.577 73.9031C259.134 76.4667 258.413 79.5288 258.413 83.0894C258.413 86.65 259.134 89.7833 260.577 92.4894C262.092 95.1242 264.04 97.1537 266.421 98.578C268.874 100.002 271.471 100.714 274.212 100.714C277.026 100.714 279.659 100.038 282.112 98.6848C284.565 97.2606 286.512 95.2666 287.955 92.703C289.398 90.0682 290.12 86.9348 290.12 83.303Z" fill="white"/>
<path d="M314.114 83.303C314.114 77.1788 315.377 71.8379 317.902 67.2804C320.427 62.6516 323.926 59.091 328.398 56.5986C332.871 54.035 337.993 52.7532 343.765 52.7532C351.195 52.7532 357.327 54.6047 362.161 58.3077C367.067 61.9395 370.349 67.0668 372.008 73.6894H355.668C354.802 71.1258 353.324 69.1319 351.231 67.7077C349.211 66.2122 346.686 65.4645 343.656 65.4645C339.328 65.4645 335.901 67.0311 333.376 70.1645C330.851 73.2266 329.589 77.6061 329.589 83.303C329.589 88.9288 330.851 93.3083 333.376 96.4416C335.901 99.5037 339.328 101.035 343.656 101.035C349.789 101.035 353.792 98.3287 355.668 92.9166H372.008C370.349 99.3257 367.067 104.417 362.161 108.192C357.255 111.966 351.123 113.853 343.765 113.853C337.993 113.853 332.871 112.607 328.398 110.114C323.926 107.551 320.427 103.99 317.902 99.4325C315.377 94.8037 314.114 89.4273 314.114 83.303Z" fill="white"/>
<path d="M398.582 65.9986V94.6257C398.582 96.6196 399.05 98.0795 399.988 99.0052C400.998 99.8598 402.658 100.287 404.966 100.287H412V112.892H402.477C389.708 112.892 383.323 106.767 383.323 94.5189V65.9986H376.181V53.7145H383.323V39.0805H398.582V53.7145H412V65.9986H398.582Z" fill="white"/>
</svg>
