<svg width="122" height="41" viewBox="0 0 122 41" fill="none" xmlns="http://www.w3.org/2000/svg">
<path d="M10.2934 21.1648C9.61556 20.88 8.96061 20.166 9.34698 19.4129C9.54673 19.0234 9.92667 18.8007 10.2968 18.8169H10.3049C11.8129 18.8169 12.7938 21.0403 12.7938 21.0403C12.0076 21.3598 11.0989 21.5039 10.2934 21.1665M17.6699 22.2324C17.6699 22.2324 18.089 21.9345 18.2922 21.7722C20.2209 20.2284 21.2393 18.2342 21.2393 16.0044C21.2393 13.6106 20.5138 11.695 19.0845 10.3116C16.987 8.286 14.2083 8.25355 13.7369 8.26166H0.652466V32.0329H4.71645V12.0389H13.8169C13.9448 12.0389 15.4824 12.0649 16.4762 13.0441C16.8119 13.3748 17.0623 13.7973 17.2245 14.3129C17.3818 14.7991 17.4604 15.3609 17.4604 16.0027C17.4604 16.1846 17.4456 16.3594 17.4145 16.5264C17.3062 17.4172 16.8871 18.4191 15.7213 19.2772C15.7591 19.2492 14.4637 17.8674 14.3328 17.7446C13.8007 17.2469 13.2162 16.795 12.5646 16.4643C10.4277 15.3788 7.62777 15.7864 6.56659 18.1343C5.92171 19.5637 5.91024 21.2336 6.99408 22.4518C8.32021 23.9401 10.395 24.2445 12.2846 24.1612C12.4645 24.1528 14.2444 23.8859 14.2019 23.8204L19.4364 32.0673H23.9083L17.6666 22.2305L17.6699 22.2324Z" fill="black"/>
<path d="M44.9323 22.7601C44.9323 23.4801 44.8843 24.1281 44.7883 24.7041H30.2083C30.3283 26.1441 30.8323 27.2721 31.7203 28.0881C32.6083 28.9041 33.7003 29.3121 34.9963 29.3121C36.8683 29.3121 38.2003 28.5081 38.9923 26.9001H44.4283C43.8523 28.8201 42.7483 30.4041 41.1163 31.6521C39.4843 32.8761 37.4803 33.4881 35.1043 33.4881C33.1843 33.4881 31.4563 33.0681 29.9203 32.2281C28.4083 31.3641 27.2203 30.1521 26.3563 28.5921C25.5163 27.0321 25.0963 25.2321 25.0963 23.1921C25.0963 21.1281 25.5163 19.3161 26.3563 17.7561C27.1963 16.1961 28.3723 14.9961 29.8843 14.1561C31.3963 13.3161 33.1363 12.8961 35.1043 12.8961C37.0003 12.8961 38.6923 13.3041 40.1803 14.1201C41.6923 14.9361 42.8563 16.1001 43.6723 17.6121C44.5123 19.1001 44.9323 20.8161 44.9323 22.7601ZM39.7123 21.3201C39.6883 20.0241 39.2203 18.9921 38.3083 18.2241C37.3963 17.4321 36.2803 17.0361 34.9603 17.0361C33.7123 17.0361 32.6563 17.4201 31.7923 18.1881C30.9523 18.9321 30.4363 19.9761 30.2443 21.3201H39.7123Z" fill="black"/>
<path d="M62.0852 29.4706H46.9083V33.5377H62.0852V29.4706Z" fill="black"/>
<path d="M63.8405 23.1201C63.8405 21.1041 64.2365 19.3161 65.0285 17.7561C65.8445 16.1961 66.9365 14.9961 68.3045 14.1561C69.6965 13.3161 71.2445 12.8961 72.9485 12.8961C74.4365 12.8961 75.7325 13.1961 76.8365 13.7961C77.9645 14.3961 78.8645 15.1521 79.5365 16.0641V13.2201H84.6125V33.1641H79.5365V30.2481C78.8885 31.1841 77.9885 31.9641 76.8365 32.5881C75.7085 33.1881 74.4005 33.4881 72.9125 33.4881C71.2325 33.4881 69.6965 33.0561 68.3045 32.1921C66.9365 31.3281 65.8445 30.1161 65.0285 28.5561C64.2365 26.9721 63.8405 25.1601 63.8405 23.1201ZM79.5365 23.1921C79.5365 21.9681 79.2965 20.9241 78.8165 20.0601C78.3365 19.1721 77.6885 18.5001 76.8725 18.0441C76.0565 17.5641 75.1805 17.3241 74.2445 17.3241C73.3085 17.3241 72.4445 17.5521 71.6525 18.0081C70.8605 18.4641 70.2125 19.1361 69.7085 20.0241C69.2285 20.8881 68.9885 21.9201 68.9885 23.1201C68.9885 24.3201 69.2285 25.3761 69.7085 26.2881C70.2125 27.1761 70.8605 27.8601 71.6525 28.3401C72.4685 28.8201 73.3325 29.0601 74.2445 29.0601C75.1805 29.0601 76.0565 28.8321 76.8725 28.3761C77.6885 27.8961 78.3365 27.2241 78.8165 26.3601C79.2965 25.4721 79.5365 24.4161 79.5365 23.1921ZM87.5189 23.1921C87.5189 21.1281 87.9389 19.3281 88.7789 17.7921C89.6189 16.2321 90.7829 15.0321 92.2709 14.1921C93.7589 13.3281 95.4629 12.8961 97.3829 12.8961C99.8549 12.8961 101.895 13.5201 103.503 14.7681C105.135 15.9921 106.227 17.7201 106.779 19.9521H101.343C101.055 19.0881 100.563 18.4161 99.8669 17.9361C99.1949 17.4321 98.3549 17.1801 97.3469 17.1801C95.9069 17.1801 94.7669 17.7081 93.9269 18.7641C93.0869 19.7961 92.6669 21.2721 92.6669 23.1921C92.6669 25.0881 93.0869 26.5641 93.9269 27.6201C94.7669 28.6521 95.9069 29.1681 97.3469 29.1681C99.3869 29.1681 100.719 28.2561 101.343 26.4321H106.779C106.227 28.5921 105.135 30.3081 103.503 31.5801C101.871 32.8521 99.8309 33.4881 97.3829 33.4881C95.4629 33.4881 93.7589 33.0681 92.2709 32.2281C90.7829 31.3641 89.6189 30.1641 88.7789 28.6281C87.9389 27.0681 87.5189 25.2561 87.5189 23.1921ZM115.619 17.3601V27.0081C115.619 27.6801 115.775 28.1721 116.087 28.4841C116.423 28.7721 116.975 28.9161 117.743 28.9161H120.083V33.1641H116.915C112.667 33.1641 110.543 31.1001 110.543 26.9721V17.3601H108.167V13.2201H110.543V8.28812H115.619V13.2201H120.083V17.3601H115.619Z" fill="black"/>
</svg>
